<mxfile host="65bd71144e" modified="2020-11-23T17:38:08.188Z" agent="5.0 (Windows NT 10.0; Win64; x64) AppleWebKit/537.36 (KHTML, like Gecko) Code/1.51.1 Chrome/83.0.4103.122 Electron/9.3.3 Safari/537.36" etag="cCLCdkK6nbFRWpX2zvN7" version="13.6.5" pages="3">
    <diagram id="C5RBs43oDa-KdzZeNtuy" name="Page-1">
        <mxGraphModel dx="1116" dy="623" grid="1" gridSize="10" guides="1" tooltips="1" connect="1" arrows="1" fold="1" page="1" pageScale="1" pageWidth="827" pageHeight="1169" math="0" shadow="0">
            <root>
                <mxCell id="WIyWlLk6GJQsqaUBKTNV-0"/>
                <mxCell id="WIyWlLk6GJQsqaUBKTNV-1" parent="WIyWlLk6GJQsqaUBKTNV-0"/>
                <mxCell id="zkfFHV4jXpPFQw0GAbJ--0" value="User" style="swimlane;fontStyle=2;align=center;verticalAlign=top;childLayout=stackLayout;horizontal=1;startSize=26;horizontalStack=0;resizeParent=1;resizeLast=0;collapsible=1;marginBottom=0;rounded=0;shadow=0;strokeWidth=1;" parent="WIyWlLk6GJQsqaUBKTNV-1" vertex="1">
                    <mxGeometry x="240" y="40" width="190" height="176" as="geometry">
                        <mxRectangle x="230" y="140" width="160" height="26" as="alternateBounds"/>
                    </mxGeometry>
                </mxCell>
                <mxCell id="zkfFHV4jXpPFQw0GAbJ--4" value="" style="line;html=1;strokeWidth=1;align=left;verticalAlign=middle;spacingTop=-1;spacingLeft=3;spacingRight=3;rotatable=0;labelPosition=right;points=[];portConstraint=eastwest;" parent="zkfFHV4jXpPFQw0GAbJ--0" vertex="1">
                    <mxGeometry y="26" width="190" height="8" as="geometry"/>
                </mxCell>
                <mxCell id="w8E4-vSp_22JqNi1tz53-83" value="- createMessage&#10;(Picture,Location,String,File): void" style="text;align=left;verticalAlign=top;spacingLeft=4;spacingRight=4;overflow=hidden;rotatable=0;points=[[0,0.5],[1,0.5]];portConstraint=eastwest;" parent="zkfFHV4jXpPFQw0GAbJ--0" vertex="1">
                    <mxGeometry y="34" width="190" height="36" as="geometry"/>
                </mxCell>
                <mxCell id="zkfFHV4jXpPFQw0GAbJ--5" value="- sendMessage&#10;(Chat/Group, Message): void" style="text;align=left;verticalAlign=top;spacingLeft=4;spacingRight=4;overflow=hidden;rotatable=0;points=[[0,0.5],[1,0.5]];portConstraint=eastwest;" parent="zkfFHV4jXpPFQw0GAbJ--0" vertex="1">
                    <mxGeometry y="70" width="190" height="46" as="geometry"/>
                </mxCell>
                <mxCell id="w8E4-vSp_22JqNi1tz53-20" value="- createChat(User): Chat" style="text;align=left;verticalAlign=top;spacingLeft=4;spacingRight=4;overflow=hidden;rotatable=0;points=[[0,0.5],[1,0.5]];portConstraint=eastwest;" parent="zkfFHV4jXpPFQw0GAbJ--0" vertex="1">
                    <mxGeometry y="116" width="190" height="30" as="geometry"/>
                </mxCell>
                <mxCell id="w8E4-vSp_22JqNi1tz53-82" value="- changeProfile(): void" style="text;align=left;verticalAlign=top;spacingLeft=4;spacingRight=4;overflow=hidden;rotatable=0;points=[[0,0.5],[1,0.5]];portConstraint=eastwest;" parent="zkfFHV4jXpPFQw0GAbJ--0" vertex="1">
                    <mxGeometry y="146" width="190" height="30" as="geometry"/>
                </mxCell>
                <mxCell id="zkfFHV4jXpPFQw0GAbJ--6" value="Chat" style="swimlane;fontStyle=0;align=center;verticalAlign=top;childLayout=stackLayout;horizontal=1;startSize=26;horizontalStack=0;resizeParent=1;resizeLast=0;collapsible=1;marginBottom=0;rounded=0;shadow=0;strokeWidth=1;" parent="WIyWlLk6GJQsqaUBKTNV-1" vertex="1">
                    <mxGeometry x="20" y="322" width="160" height="88" as="geometry">
                        <mxRectangle x="130" y="380" width="160" height="26" as="alternateBounds"/>
                    </mxGeometry>
                </mxCell>
                <mxCell id="zkfFHV4jXpPFQw0GAbJ--7" value="- partner: Contact" style="text;align=left;verticalAlign=top;spacingLeft=4;spacingRight=4;overflow=hidden;rotatable=0;points=[[0,0.5],[1,0.5]];portConstraint=eastwest;" parent="zkfFHV4jXpPFQw0GAbJ--6" vertex="1">
                    <mxGeometry y="26" width="160" height="26" as="geometry"/>
                </mxCell>
                <mxCell id="zkfFHV4jXpPFQw0GAbJ--8" value="- previousMsg: Message[]" style="text;align=left;verticalAlign=top;spacingLeft=4;spacingRight=4;overflow=hidden;rotatable=0;points=[[0,0.5],[1,0.5]];portConstraint=eastwest;rounded=0;shadow=0;html=0;" parent="zkfFHV4jXpPFQw0GAbJ--6" vertex="1">
                    <mxGeometry y="52" width="160" height="26" as="geometry"/>
                </mxCell>
                <mxCell id="zkfFHV4jXpPFQw0GAbJ--9" value="" style="line;html=1;strokeWidth=1;align=left;verticalAlign=middle;spacingTop=-1;spacingLeft=3;spacingRight=3;rotatable=0;labelPosition=right;points=[];portConstraint=eastwest;" parent="zkfFHV4jXpPFQw0GAbJ--6" vertex="1">
                    <mxGeometry y="78" width="160" height="8" as="geometry"/>
                </mxCell>
                <mxCell id="zkfFHV4jXpPFQw0GAbJ--13" value="Group" style="swimlane;fontStyle=0;align=center;verticalAlign=top;childLayout=stackLayout;horizontal=1;startSize=26;horizontalStack=0;resizeParent=1;resizeLast=0;collapsible=1;marginBottom=0;rounded=0;shadow=0;strokeWidth=1;" parent="WIyWlLk6GJQsqaUBKTNV-1" vertex="1">
                    <mxGeometry x="20" y="200" width="160" height="70" as="geometry">
                        <mxRectangle x="340" y="380" width="170" height="26" as="alternateBounds"/>
                    </mxGeometry>
                </mxCell>
                <mxCell id="zkfFHV4jXpPFQw0GAbJ--14" value="+ members: Contacts[]" style="text;align=left;verticalAlign=top;spacingLeft=4;spacingRight=4;overflow=hidden;rotatable=0;points=[[0,0.5],[1,0.5]];portConstraint=eastwest;" parent="zkfFHV4jXpPFQw0GAbJ--13" vertex="1">
                    <mxGeometry y="26" width="160" height="26" as="geometry"/>
                </mxCell>
                <mxCell id="zkfFHV4jXpPFQw0GAbJ--15" value="" style="line;html=1;strokeWidth=1;align=left;verticalAlign=middle;spacingTop=-1;spacingLeft=3;spacingRight=3;rotatable=0;labelPosition=right;points=[];portConstraint=eastwest;" parent="zkfFHV4jXpPFQw0GAbJ--13" vertex="1">
                    <mxGeometry y="52" width="160" height="8" as="geometry"/>
                </mxCell>
                <mxCell id="zkfFHV4jXpPFQw0GAbJ--17" value="Location" style="swimlane;fontStyle=0;align=center;verticalAlign=top;childLayout=stackLayout;horizontal=1;startSize=26;horizontalStack=0;resizeParent=1;resizeLast=0;collapsible=1;marginBottom=0;rounded=0;shadow=0;strokeWidth=1;" parent="WIyWlLk6GJQsqaUBKTNV-1" vertex="1">
                    <mxGeometry x="590" y="330" width="160" height="70" as="geometry">
                        <mxRectangle x="550" y="140" width="160" height="26" as="alternateBounds"/>
                    </mxGeometry>
                </mxCell>
                <mxCell id="w8E4-vSp_22JqNi1tz53-84" value="- gps: float[]" style="text;align=left;verticalAlign=top;spacingLeft=4;spacingRight=4;overflow=hidden;rotatable=0;points=[[0,0.5],[1,0.5]];portConstraint=eastwest;rounded=0;shadow=0;html=0;" parent="zkfFHV4jXpPFQw0GAbJ--17" vertex="1">
                    <mxGeometry y="26" width="160" height="26" as="geometry"/>
                </mxCell>
                <mxCell id="zkfFHV4jXpPFQw0GAbJ--23" value="" style="line;html=1;strokeWidth=1;align=left;verticalAlign=middle;spacingTop=-1;spacingLeft=3;spacingRight=3;rotatable=0;labelPosition=right;points=[];portConstraint=eastwest;" parent="zkfFHV4jXpPFQw0GAbJ--17" vertex="1">
                    <mxGeometry y="52" width="160" height="18" as="geometry"/>
                </mxCell>
                <mxCell id="w8E4-vSp_22JqNi1tz53-0" value="File" style="swimlane;fontStyle=0;align=center;verticalAlign=top;childLayout=stackLayout;horizontal=1;startSize=26;horizontalStack=0;resizeParent=1;resizeLast=0;collapsible=1;marginBottom=0;rounded=0;shadow=0;strokeWidth=1;" parent="WIyWlLk6GJQsqaUBKTNV-1" vertex="1">
                    <mxGeometry x="590" y="410" width="160" height="35" as="geometry">
                        <mxRectangle x="340" y="380" width="170" height="26" as="alternateBounds"/>
                    </mxGeometry>
                </mxCell>
                <mxCell id="w8E4-vSp_22JqNi1tz53-2" value="" style="line;html=1;strokeWidth=1;align=left;verticalAlign=middle;spacingTop=-1;spacingLeft=3;spacingRight=3;rotatable=0;labelPosition=right;points=[];portConstraint=eastwest;" parent="w8E4-vSp_22JqNi1tz53-0" vertex="1">
                    <mxGeometry y="26" width="160" height="8" as="geometry"/>
                </mxCell>
                <mxCell id="w8E4-vSp_22JqNi1tz53-3" value="Profile" style="swimlane;fontStyle=0;align=center;verticalAlign=top;childLayout=stackLayout;horizontal=1;startSize=26;horizontalStack=0;resizeParent=1;resizeLast=0;collapsible=1;marginBottom=0;rounded=0;shadow=0;strokeWidth=1;" parent="WIyWlLk6GJQsqaUBKTNV-1" vertex="1">
                    <mxGeometry x="483" y="40" width="160" height="140" as="geometry">
                        <mxRectangle x="550" y="140" width="160" height="26" as="alternateBounds"/>
                    </mxGeometry>
                </mxCell>
                <mxCell id="w8E4-vSp_22JqNi1tz53-4" value="+ name: String" style="text;align=left;verticalAlign=top;spacingLeft=4;spacingRight=4;overflow=hidden;rotatable=0;points=[[0,0.5],[1,0.5]];portConstraint=eastwest;" parent="w8E4-vSp_22JqNi1tz53-3" vertex="1">
                    <mxGeometry y="26" width="160" height="26" as="geometry"/>
                </mxCell>
                <mxCell id="w8E4-vSp_22JqNi1tz53-5" value="+ phoneNumber: String" style="text;align=left;verticalAlign=top;spacingLeft=4;spacingRight=4;overflow=hidden;rotatable=0;points=[[0,0.5],[1,0.5]];portConstraint=eastwest;rounded=0;shadow=0;html=0;" parent="w8E4-vSp_22JqNi1tz53-3" vertex="1">
                    <mxGeometry y="52" width="160" height="26" as="geometry"/>
                </mxCell>
                <mxCell id="w8E4-vSp_22JqNi1tz53-6" value="+ profilePicture: Picture" style="text;align=left;verticalAlign=top;spacingLeft=4;spacingRight=4;overflow=hidden;rotatable=0;points=[[0,0.5],[1,0.5]];portConstraint=eastwest;rounded=0;shadow=0;html=0;" parent="w8E4-vSp_22JqNi1tz53-3" vertex="1">
                    <mxGeometry y="78" width="160" height="26" as="geometry"/>
                </mxCell>
                <mxCell id="w8E4-vSp_22JqNi1tz53-7" value="+lastSeen: String" style="text;align=left;verticalAlign=top;spacingLeft=4;spacingRight=4;overflow=hidden;rotatable=0;points=[[0,0.5],[1,0.5]];portConstraint=eastwest;rounded=0;shadow=0;html=0;" parent="w8E4-vSp_22JqNi1tz53-3" vertex="1">
                    <mxGeometry y="104" width="160" height="26" as="geometry"/>
                </mxCell>
                <mxCell id="w8E4-vSp_22JqNi1tz53-9" value="" style="line;html=1;strokeWidth=1;align=left;verticalAlign=middle;spacingTop=-1;spacingLeft=3;spacingRight=3;rotatable=0;labelPosition=right;points=[];portConstraint=eastwest;" parent="w8E4-vSp_22JqNi1tz53-3" vertex="1">
                    <mxGeometry y="130" width="160" height="8" as="geometry"/>
                </mxCell>
                <mxCell id="w8E4-vSp_22JqNi1tz53-12" value="Contacts" style="swimlane;fontStyle=2;align=center;verticalAlign=top;childLayout=stackLayout;horizontal=1;startSize=26;horizontalStack=0;resizeParent=1;resizeLast=0;collapsible=1;marginBottom=0;rounded=0;shadow=0;strokeWidth=1;" parent="WIyWlLk6GJQsqaUBKTNV-1" vertex="1">
                    <mxGeometry x="20" y="40" width="160" height="90" as="geometry">
                        <mxRectangle x="230" y="140" width="160" height="26" as="alternateBounds"/>
                    </mxGeometry>
                </mxCell>
                <mxCell id="w8E4-vSp_22JqNi1tz53-13" value="+ name: String " style="text;align=left;verticalAlign=top;spacingLeft=4;spacingRight=4;overflow=hidden;rotatable=0;points=[[0,0.5],[1,0.5]];portConstraint=eastwest;" parent="w8E4-vSp_22JqNi1tz53-12" vertex="1">
                    <mxGeometry y="26" width="160" height="26" as="geometry"/>
                </mxCell>
                <mxCell id="w8E4-vSp_22JqNi1tz53-14" value="+ phoneNumber: String" style="text;align=left;verticalAlign=top;spacingLeft=4;spacingRight=4;overflow=hidden;rotatable=0;points=[[0,0.5],[1,0.5]];portConstraint=eastwest;rounded=0;shadow=0;html=0;" parent="w8E4-vSp_22JqNi1tz53-12" vertex="1">
                    <mxGeometry y="52" width="160" height="26" as="geometry"/>
                </mxCell>
                <mxCell id="w8E4-vSp_22JqNi1tz53-16" value="" style="line;html=1;strokeWidth=1;align=left;verticalAlign=middle;spacingTop=-1;spacingLeft=3;spacingRight=3;rotatable=0;labelPosition=right;points=[];portConstraint=eastwest;" parent="w8E4-vSp_22JqNi1tz53-12" vertex="1">
                    <mxGeometry y="78" width="160" height="8" as="geometry"/>
                </mxCell>
                <mxCell id="w8E4-vSp_22JqNi1tz53-27" value="Message" style="swimlane;fontStyle=2;align=center;verticalAlign=top;childLayout=stackLayout;horizontal=1;startSize=26;horizontalStack=0;resizeParent=1;resizeLast=0;collapsible=1;marginBottom=0;rounded=0;shadow=0;strokeWidth=1;" parent="WIyWlLk6GJQsqaUBKTNV-1" vertex="1">
                    <mxGeometry x="310" y="270" width="200" height="150" as="geometry">
                        <mxRectangle x="230" y="140" width="160" height="26" as="alternateBounds"/>
                    </mxGeometry>
                </mxCell>
                <mxCell id="w8E4-vSp_22JqNi1tz53-28" value="- text: String " style="text;align=left;verticalAlign=top;spacingLeft=4;spacingRight=4;overflow=hidden;rotatable=0;points=[[0,0.5],[1,0.5]];portConstraint=eastwest;" parent="w8E4-vSp_22JqNi1tz53-27" vertex="1">
                    <mxGeometry y="26" width="200" height="26" as="geometry"/>
                </mxCell>
                <mxCell id="w8E4-vSp_22JqNi1tz53-29" value="- picture: Picture" style="text;align=left;verticalAlign=top;spacingLeft=4;spacingRight=4;overflow=hidden;rotatable=0;points=[[0,0.5],[1,0.5]];portConstraint=eastwest;rounded=0;shadow=0;html=0;" parent="w8E4-vSp_22JqNi1tz53-27" vertex="1">
                    <mxGeometry y="52" width="200" height="26" as="geometry"/>
                </mxCell>
                <mxCell id="w8E4-vSp_22JqNi1tz53-30" value="- location: Location" style="text;align=left;verticalAlign=top;spacingLeft=4;spacingRight=4;overflow=hidden;rotatable=0;points=[[0,0.5],[1,0.5]];portConstraint=eastwest;rounded=0;shadow=0;html=0;" parent="w8E4-vSp_22JqNi1tz53-27" vertex="1">
                    <mxGeometry y="78" width="200" height="26" as="geometry"/>
                </mxCell>
                <mxCell id="w8E4-vSp_22JqNi1tz53-31" value="- file: File" style="text;align=left;verticalAlign=top;spacingLeft=4;spacingRight=4;overflow=hidden;rotatable=0;points=[[0,0.5],[1,0.5]];portConstraint=eastwest;rounded=0;shadow=0;html=0;" parent="w8E4-vSp_22JqNi1tz53-27" vertex="1">
                    <mxGeometry y="104" width="200" height="26" as="geometry"/>
                </mxCell>
                <mxCell id="w8E4-vSp_22JqNi1tz53-32" value="" style="line;html=1;strokeWidth=1;align=left;verticalAlign=middle;spacingTop=-1;spacingLeft=3;spacingRight=3;rotatable=0;labelPosition=right;points=[];portConstraint=eastwest;" parent="w8E4-vSp_22JqNi1tz53-27" vertex="1">
                    <mxGeometry y="130" width="200" height="8" as="geometry"/>
                </mxCell>
                <mxCell id="w8E4-vSp_22JqNi1tz53-35" value="Picture" style="swimlane;fontStyle=0;align=center;verticalAlign=top;childLayout=stackLayout;horizontal=1;startSize=26;horizontalStack=0;resizeParent=1;resizeLast=0;collapsible=1;marginBottom=0;rounded=0;shadow=0;strokeWidth=1;" parent="WIyWlLk6GJQsqaUBKTNV-1" vertex="1">
                    <mxGeometry x="590" y="275" width="160" height="35" as="geometry">
                        <mxRectangle x="550" y="140" width="160" height="26" as="alternateBounds"/>
                    </mxGeometry>
                </mxCell>
                <mxCell id="w8E4-vSp_22JqNi1tz53-41" value="" style="line;html=1;strokeWidth=1;align=left;verticalAlign=middle;spacingTop=-1;spacingLeft=3;spacingRight=3;rotatable=0;labelPosition=right;points=[];portConstraint=eastwest;" parent="w8E4-vSp_22JqNi1tz53-35" vertex="1">
                    <mxGeometry y="26" width="160" height="8" as="geometry"/>
                </mxCell>
                <mxCell id="w8E4-vSp_22JqNi1tz53-45" value="Singleton" style="text;html=1;strokeColor=none;fillColor=none;align=center;verticalAlign=middle;whiteSpace=wrap;rounded=0;" parent="WIyWlLk6GJQsqaUBKTNV-1" vertex="1">
                    <mxGeometry x="583" y="10" width="60" height="20" as="geometry"/>
                </mxCell>
                <mxCell id="w8E4-vSp_22JqNi1tz53-48" value="1" style="endArrow=open;html=1;endSize=12;startArrow=diamondThin;startSize=14;startFill=1;edgeStyle=orthogonalEdgeStyle;align=left;verticalAlign=bottom;entryX=0.75;entryY=0;entryDx=0;entryDy=0;exitX=0.25;exitY=0;exitDx=0;exitDy=0;" parent="WIyWlLk6GJQsqaUBKTNV-1" source="w8E4-vSp_22JqNi1tz53-3" target="w8E4-vSp_22JqNi1tz53-12" edge="1">
                    <mxGeometry x="-0.7967" relative="1" as="geometry">
                        <mxPoint x="140" y="180" as="sourcePoint"/>
                        <mxPoint x="300" y="180" as="targetPoint"/>
                        <Array as="points">
                            <mxPoint x="510" y="40"/>
                            <mxPoint x="510" y="20"/>
                            <mxPoint x="140" y="20"/>
                        </Array>
                        <mxPoint as="offset"/>
                    </mxGeometry>
                </mxCell>
                <mxCell id="w8E4-vSp_22JqNi1tz53-51" value="1" style="text;align=center;fontStyle=1;verticalAlign=middle;spacingLeft=3;spacingRight=3;strokeColor=none;rotatable=0;points=[[0,0.5],[1,0.5]];portConstraint=eastwest;" parent="WIyWlLk6GJQsqaUBKTNV-1" vertex="1">
                    <mxGeometry x="110" width="80" height="26" as="geometry"/>
                </mxCell>
                <mxCell id="w8E4-vSp_22JqNi1tz53-53" value="1" style="text;align=center;fontStyle=1;verticalAlign=middle;spacingLeft=3;spacingRight=3;strokeColor=none;rotatable=0;points=[[0,0.5],[1,0.5]];portConstraint=eastwest;" parent="WIyWlLk6GJQsqaUBKTNV-1" vertex="1">
                    <mxGeometry x="400" y="135" width="80" height="26" as="geometry"/>
                </mxCell>
                <mxCell id="w8E4-vSp_22JqNi1tz53-54" value="1" style="endArrow=open;html=1;endSize=12;startArrow=diamondThin;startSize=14;startFill=1;edgeStyle=orthogonalEdgeStyle;align=left;verticalAlign=bottom;exitX=1;exitY=0.5;exitDx=0;exitDy=0;entryX=0.5;entryY=1;entryDx=0;entryDy=0;" parent="WIyWlLk6GJQsqaUBKTNV-1" source="zkfFHV4jXpPFQw0GAbJ--14" target="zkfFHV4jXpPFQw0GAbJ--0" edge="1">
                    <mxGeometry x="-0.9176" y="-21" relative="1" as="geometry">
                        <mxPoint x="325" y="340" as="sourcePoint"/>
                        <mxPoint x="567" y="250" as="targetPoint"/>
                        <mxPoint as="offset"/>
                    </mxGeometry>
                </mxCell>
                <mxCell id="w8E4-vSp_22JqNi1tz53-61" value="" style="endArrow=none;html=1;exitX=0.5;exitY=0;exitDx=0;exitDy=0;entryX=0.5;entryY=1;entryDx=0;entryDy=0;" parent="WIyWlLk6GJQsqaUBKTNV-1" source="zkfFHV4jXpPFQw0GAbJ--13" target="w8E4-vSp_22JqNi1tz53-12" edge="1">
                    <mxGeometry width="50" height="50" relative="1" as="geometry">
                        <mxPoint x="110" y="300" as="sourcePoint"/>
                        <mxPoint x="100" y="180" as="targetPoint"/>
                    </mxGeometry>
                </mxCell>
                <mxCell id="w8E4-vSp_22JqNi1tz53-62" value="*" style="edgeLabel;html=1;align=center;verticalAlign=middle;resizable=0;points=[];" parent="w8E4-vSp_22JqNi1tz53-61" vertex="1" connectable="0">
                    <mxGeometry x="0.6364" y="1" relative="1" as="geometry">
                        <mxPoint x="11" y="-12" as="offset"/>
                    </mxGeometry>
                </mxCell>
                <mxCell id="w8E4-vSp_22JqNi1tz53-63" value="*" style="edgeLabel;html=1;align=center;verticalAlign=middle;resizable=0;points=[];" parent="w8E4-vSp_22JqNi1tz53-61" vertex="1" connectable="0">
                    <mxGeometry x="-0.8528" relative="1" as="geometry">
                        <mxPoint x="10" as="offset"/>
                    </mxGeometry>
                </mxCell>
                <mxCell id="w8E4-vSp_22JqNi1tz53-64" value="" style="endArrow=none;html=1;entryX=1.005;entryY=0.16;entryDx=0;entryDy=0;entryPerimeter=0;" parent="WIyWlLk6GJQsqaUBKTNV-1" target="w8E4-vSp_22JqNi1tz53-27" edge="1">
                    <mxGeometry width="50" height="50" relative="1" as="geometry">
                        <mxPoint x="591" y="294" as="sourcePoint"/>
                        <mxPoint x="130" y="-2" as="targetPoint"/>
                    </mxGeometry>
                </mxCell>
                <mxCell id="w8E4-vSp_22JqNi1tz53-65" value="*" style="edgeLabel;html=1;align=center;verticalAlign=middle;resizable=0;points=[];" parent="w8E4-vSp_22JqNi1tz53-64" vertex="1" connectable="0">
                    <mxGeometry x="0.6364" y="1" relative="1" as="geometry">
                        <mxPoint x="1" y="11.989999999999998" as="offset"/>
                    </mxGeometry>
                </mxCell>
                <mxCell id="w8E4-vSp_22JqNi1tz53-66" value="1" style="edgeLabel;html=1;align=center;verticalAlign=middle;resizable=0;points=[];" parent="w8E4-vSp_22JqNi1tz53-64" vertex="1" connectable="0">
                    <mxGeometry x="-0.8528" relative="1" as="geometry">
                        <mxPoint x="-5.09" y="10.96" as="offset"/>
                    </mxGeometry>
                </mxCell>
                <mxCell id="w8E4-vSp_22JqNi1tz53-67" value="" style="endArrow=none;html=1;exitX=0;exitY=0.5;exitDx=0;exitDy=0;" parent="WIyWlLk6GJQsqaUBKTNV-1" source="w8E4-vSp_22JqNi1tz53-84" edge="1">
                    <mxGeometry width="50" height="50" relative="1" as="geometry">
                        <mxPoint x="210" y="389.03999999999996" as="sourcePoint"/>
                        <mxPoint x="510" y="396" as="targetPoint"/>
                    </mxGeometry>
                </mxCell>
                <mxCell id="w8E4-vSp_22JqNi1tz53-68" value="*" style="edgeLabel;html=1;align=center;verticalAlign=middle;resizable=0;points=[];" parent="w8E4-vSp_22JqNi1tz53-67" vertex="1" connectable="0">
                    <mxGeometry x="0.6364" y="1" relative="1" as="geometry">
                        <mxPoint x="-13.879999999999999" y="-18.240000000000002" as="offset"/>
                    </mxGeometry>
                </mxCell>
                <mxCell id="w8E4-vSp_22JqNi1tz53-69" value="1" style="edgeLabel;html=1;align=center;verticalAlign=middle;resizable=0;points=[];" parent="w8E4-vSp_22JqNi1tz53-67" vertex="1" connectable="0">
                    <mxGeometry x="-0.8528" relative="1" as="geometry">
                        <mxPoint x="10" y="-6.390000000000001" as="offset"/>
                    </mxGeometry>
                </mxCell>
                <mxCell id="w8E4-vSp_22JqNi1tz53-70" value="" style="endArrow=none;html=1;exitX=0;exitY=0.5;exitDx=0;exitDy=0;" parent="WIyWlLk6GJQsqaUBKTNV-1" source="w8E4-vSp_22JqNi1tz53-0" edge="1">
                    <mxGeometry width="50" height="50" relative="1" as="geometry">
                        <mxPoint x="310" y="550" as="sourcePoint"/>
                        <mxPoint x="500" y="420" as="targetPoint"/>
                    </mxGeometry>
                </mxCell>
                <mxCell id="w8E4-vSp_22JqNi1tz53-71" value="*" style="edgeLabel;html=1;align=center;verticalAlign=middle;resizable=0;points=[];" parent="w8E4-vSp_22JqNi1tz53-70" vertex="1" connectable="0">
                    <mxGeometry x="0.6364" y="1" relative="1" as="geometry">
                        <mxPoint x="11" y="0.8299999999999983" as="offset"/>
                    </mxGeometry>
                </mxCell>
                <mxCell id="w8E4-vSp_22JqNi1tz53-72" value="1" style="edgeLabel;html=1;align=center;verticalAlign=middle;resizable=0;points=[];" parent="w8E4-vSp_22JqNi1tz53-70" vertex="1" connectable="0">
                    <mxGeometry x="-0.8528" relative="1" as="geometry">
                        <mxPoint x="10" y="-9.170000000000002" as="offset"/>
                    </mxGeometry>
                </mxCell>
                <mxCell id="w8E4-vSp_22JqNi1tz53-49" value="1" style="endArrow=open;html=1;endSize=12;startArrow=diamondThin;startSize=14;startFill=1;edgeStyle=orthogonalEdgeStyle;align=left;verticalAlign=bottom;exitX=0;exitY=0.5;exitDx=0;exitDy=0;entryX=1;entryY=0.5;entryDx=0;entryDy=0;" parent="WIyWlLk6GJQsqaUBKTNV-1" source="w8E4-vSp_22JqNi1tz53-6" edge="1">
                    <mxGeometry x="-0.5439" y="29" relative="1" as="geometry">
                        <mxPoint x="80" y="15" as="sourcePoint"/>
                        <mxPoint x="426" y="131" as="targetPoint"/>
                        <mxPoint as="offset"/>
                    </mxGeometry>
                </mxCell>
                <mxCell id="w8E4-vSp_22JqNi1tz53-74" value="" style="endArrow=classic;html=1;entryX=0.5;entryY=1;entryDx=0;entryDy=0;exitX=0.5;exitY=0;exitDx=0;exitDy=0;" parent="WIyWlLk6GJQsqaUBKTNV-1" source="zkfFHV4jXpPFQw0GAbJ--6" target="zkfFHV4jXpPFQw0GAbJ--13" edge="1">
                    <mxGeometry width="50" height="50" relative="1" as="geometry">
                        <mxPoint x="70" y="350" as="sourcePoint"/>
                        <mxPoint x="120" y="300" as="targetPoint"/>
                    </mxGeometry>
                </mxCell>
                <mxCell id="w8E4-vSp_22JqNi1tz53-75" value="" style="endArrow=open;html=1;endSize=12;startArrow=diamondThin;startSize=14;startFill=1;edgeStyle=orthogonalEdgeStyle;align=left;verticalAlign=bottom;exitX=0;exitY=0.5;exitDx=0;exitDy=0;entryX=1;entryY=1;entryDx=0;entryDy=0;" parent="WIyWlLk6GJQsqaUBKTNV-1" source="w8E4-vSp_22JqNi1tz53-29" target="zkfFHV4jXpPFQw0GAbJ--13" edge="1">
                    <mxGeometry x="-0.5387" y="-10" relative="1" as="geometry">
                        <mxPoint x="190" y="249" as="sourcePoint"/>
                        <mxPoint x="342.9999999999999" y="150" as="targetPoint"/>
                        <mxPoint as="offset"/>
                        <Array as="points">
                            <mxPoint x="280" y="335"/>
                            <mxPoint x="280" y="300"/>
                            <mxPoint x="180" y="300"/>
                        </Array>
                    </mxGeometry>
                </mxCell>
                <mxCell id="w8E4-vSp_22JqNi1tz53-76" value="*" style="endArrow=open;html=1;endSize=12;startArrow=diamondThin;startSize=14;startFill=1;edgeStyle=orthogonalEdgeStyle;align=left;verticalAlign=bottom;exitX=0;exitY=0.5;exitDx=0;exitDy=0;entryX=1;entryY=0.5;entryDx=0;entryDy=0;" parent="WIyWlLk6GJQsqaUBKTNV-1" source="w8E4-vSp_22JqNi1tz53-29" target="zkfFHV4jXpPFQw0GAbJ--7" edge="1">
                    <mxGeometry x="-0.7436" y="-5" relative="1" as="geometry">
                        <mxPoint x="190" y="249" as="sourcePoint"/>
                        <mxPoint x="342.9999999999999" y="150" as="targetPoint"/>
                        <mxPoint as="offset"/>
                    </mxGeometry>
                </mxCell>
                <mxCell id="w8E4-vSp_22JqNi1tz53-77" value="1" style="text;align=center;fontStyle=1;verticalAlign=middle;spacingLeft=3;spacingRight=3;strokeColor=none;rotatable=0;points=[[0,0.5],[1,0.5]];portConstraint=eastwest;" parent="WIyWlLk6GJQsqaUBKTNV-1" vertex="1">
                    <mxGeometry x="160" y="270" width="80" height="26" as="geometry"/>
                </mxCell>
                <mxCell id="w8E4-vSp_22JqNi1tz53-78" value="1" style="text;align=center;fontStyle=1;verticalAlign=middle;spacingLeft=3;spacingRight=3;strokeColor=none;rotatable=0;points=[[0,0.5],[1,0.5]];portConstraint=eastwest;" parent="WIyWlLk6GJQsqaUBKTNV-1" vertex="1">
                    <mxGeometry x="170" y="340" width="80" height="26" as="geometry"/>
                </mxCell>
                <mxCell id="w8E4-vSp_22JqNi1tz53-79" value="" style="endArrow=none;html=1;exitX=0.25;exitY=0;exitDx=0;exitDy=0;entryX=0.75;entryY=1;entryDx=0;entryDy=0;" parent="WIyWlLk6GJQsqaUBKTNV-1" source="w8E4-vSp_22JqNi1tz53-35" target="w8E4-vSp_22JqNi1tz53-3" edge="1">
                    <mxGeometry width="50" height="50" relative="1" as="geometry">
                        <mxPoint x="500" y="310" as="sourcePoint"/>
                        <mxPoint x="567.4896907216496" y="204" as="targetPoint"/>
                    </mxGeometry>
                </mxCell>
                <mxCell id="w8E4-vSp_22JqNi1tz53-80" value="1" style="edgeLabel;html=1;align=center;verticalAlign=middle;resizable=0;points=[];" parent="w8E4-vSp_22JqNi1tz53-79" vertex="1" connectable="0">
                    <mxGeometry x="-0.3097" y="-1" relative="1" as="geometry">
                        <mxPoint x="33" y="29.74" as="offset"/>
                    </mxGeometry>
                </mxCell>
                <mxCell id="w8E4-vSp_22JqNi1tz53-81" value="*" style="edgeLabel;html=1;align=center;verticalAlign=middle;resizable=0;points=[];" parent="WIyWlLk6GJQsqaUBKTNV-1" vertex="1" connectable="0">
                    <mxGeometry x="642.995253676401" y="189.99840721958526" as="geometry">
                        <mxPoint x="-63" y="-104" as="offset"/>
                    </mxGeometry>
                </mxCell>
            </root>
        </mxGraphModel>
    </diagram>
    <diagram id="si0Ore7L6cg6dbarOxFm" name="Page-2">
        <mxGraphModel dx="1116" dy="623" grid="1" gridSize="10" guides="1" tooltips="1" connect="1" arrows="1" fold="1" page="1" pageScale="1" pageWidth="1169" pageHeight="827" math="0" shadow="0">
            <root>
                <mxCell id="9OP8s1nlH45upp5OgZAQ-0"/>
                <mxCell id="9OP8s1nlH45upp5OgZAQ-1" parent="9OP8s1nlH45upp5OgZAQ-0"/>
                <mxCell id="4d9BVol8pyJ4ggtCNikl-0" value="User" style="shape=umlActor;verticalLabelPosition=bottom;verticalAlign=top;html=1;outlineConnect=0;" parent="9OP8s1nlH45upp5OgZAQ-1" vertex="1">
                    <mxGeometry x="20" y="230" width="60" height="100" as="geometry"/>
                </mxCell>
                <mxCell id="4d9BVol8pyJ4ggtCNikl-1" value="" style="rounded=0;whiteSpace=wrap;html=1;" parent="9OP8s1nlH45upp5OgZAQ-1" vertex="1">
                    <mxGeometry x="100" y="35" width="510" height="525" as="geometry"/>
                </mxCell>
                <mxCell id="4d9BVol8pyJ4ggtCNikl-2" value="Schreiben" style="ellipse;whiteSpace=wrap;html=1;" parent="9OP8s1nlH45upp5OgZAQ-1" vertex="1">
                    <mxGeometry x="385" y="120" width="100" height="30" as="geometry"/>
                </mxCell>
                <mxCell id="4d9BVol8pyJ4ggtCNikl-3" value="" style="ellipse;whiteSpace=wrap;html=1;" parent="9OP8s1nlH45upp5OgZAQ-1" vertex="1">
                    <mxGeometry x="290" y="120" width="70" height="30" as="geometry"/>
                </mxCell>
                <mxCell id="4d9BVol8pyJ4ggtCNikl-4" value="Bild aufnehmen" style="ellipse;whiteSpace=wrap;html=1;" parent="9OP8s1nlH45upp5OgZAQ-1" vertex="1">
                    <mxGeometry x="380" y="80" width="105" height="30" as="geometry"/>
                </mxCell>
                <mxCell id="4d9BVol8pyJ4ggtCNikl-5" value="Datei/Bild auswählen" style="ellipse;whiteSpace=wrap;html=1;" parent="9OP8s1nlH45upp5OgZAQ-1" vertex="1">
                    <mxGeometry x="387.5" y="160" width="97.5" height="40" as="geometry"/>
                </mxCell>
                <mxCell id="4d9BVol8pyJ4ggtCNikl-6" value="Senden" style="ellipse;whiteSpace=wrap;html=1;" parent="9OP8s1nlH45upp5OgZAQ-1" vertex="1">
                    <mxGeometry x="530" y="120" width="70" height="30" as="geometry"/>
                </mxCell>
                <mxCell id="4d9BVol8pyJ4ggtCNikl-7" value="Chat erstellen" style="ellipse;whiteSpace=wrap;html=1;" parent="9OP8s1nlH45upp5OgZAQ-1" vertex="1">
                    <mxGeometry x="130" y="60" width="90" height="40" as="geometry"/>
                </mxCell>
                <mxCell id="4d9BVol8pyJ4ggtCNikl-8" value="bestehenden Chat auswählen" style="ellipse;whiteSpace=wrap;html=1;" parent="9OP8s1nlH45upp5OgZAQ-1" vertex="1">
                    <mxGeometry x="115" y="110" width="120" height="50" as="geometry"/>
                </mxCell>
                <mxCell id="4d9BVol8pyJ4ggtCNikl-9" value="Einstellungen ändern (Profilbild, Name)" style="ellipse;whiteSpace=wrap;html=1;" parent="9OP8s1nlH45upp5OgZAQ-1" vertex="1">
                    <mxGeometry x="110" y="430" width="130" height="60" as="geometry"/>
                </mxCell>
                <mxCell id="4d9BVol8pyJ4ggtCNikl-10" value="&lt;span style=&quot;color: rgba(0 , 0 , 0 , 0) ; font-family: monospace ; font-size: 0px ; background-color: rgb(248 , 249 , 250)&quot;&gt;%3CmxGraphModel%3E%3Croot%3E%3CmxCell%20id%3D%220%22%2F%3E%3CmxCell%20id%3D%221%22%20parent%3D%220%22%2F%3E%3CmxCell%20id%3D%222%22%20value%3D%22%22%20style%3D%22startArrow%3Doval%3BstartFill%3D0%3BstartSize%3D7%3BendArrow%3Dblock%3BendFill%3D0%3BendSize%3D10%3Bdashed%3D1%3Bhtml%3D1%3BentryX%3D1%3BentryY%3D0.5%3BentryDx%3D0%3BentryDy%3D0%3BexitX%3D0%3BexitY%3D0.5%3BexitDx%3D0%3BexitDy%3D0%3B%22%20edge%3D%221%22%20parent%3D%221%22%3E%3CmxGeometry%20width%3D%22100%22%20relative%3D%221%22%20as%3D%22geometry%22%3E%3CmxPoint%20x%3D%22530%22%20y%3D%22135%22%20as%3D%22sourcePoint%22%2F%3E%3CmxPoint%20x%3D%22485%22%20y%3D%22180%22%20as%3D%22targetPoint%22%2F%3E%3C%2FmxGeometry%3E%3C%2FmxCell%3E%3C%2Froot%3E%3C%2FmxGraphModel%3E&lt;/span&gt;" style="startArrow=oval;startFill=0;startSize=7;endArrow=block;endFill=0;endSize=10;dashed=1;html=1;entryX=1;entryY=0.5;entryDx=0;entryDy=0;exitX=0;exitY=0.5;exitDx=0;exitDy=0;" parent="9OP8s1nlH45upp5OgZAQ-1" source="4d9BVol8pyJ4ggtCNikl-6" target="4d9BVol8pyJ4ggtCNikl-5" edge="1">
                    <mxGeometry width="100" relative="1" as="geometry">
                        <mxPoint x="420" y="190" as="sourcePoint"/>
                        <mxPoint x="520" y="190" as="targetPoint"/>
                    </mxGeometry>
                </mxCell>
                <mxCell id="4d9BVol8pyJ4ggtCNikl-11" value="" style="startArrow=oval;startFill=0;startSize=7;endArrow=block;endFill=0;endSize=10;dashed=1;html=1;entryX=1;entryY=0.5;entryDx=0;entryDy=0;exitX=0;exitY=0.5;exitDx=0;exitDy=0;" parent="9OP8s1nlH45upp5OgZAQ-1" source="4d9BVol8pyJ4ggtCNikl-6" target="4d9BVol8pyJ4ggtCNikl-2" edge="1">
                    <mxGeometry width="100" relative="1" as="geometry">
                        <mxPoint x="429.99999999999704" y="145" as="sourcePoint"/>
                        <mxPoint x="401.25" y="190" as="targetPoint"/>
                    </mxGeometry>
                </mxCell>
                <mxCell id="4d9BVol8pyJ4ggtCNikl-12" value="" style="startArrow=oval;startFill=0;startSize=7;endArrow=block;endFill=0;endSize=10;dashed=1;html=1;entryX=1;entryY=0.5;entryDx=0;entryDy=0;exitX=0;exitY=0.5;exitDx=0;exitDy=0;" parent="9OP8s1nlH45upp5OgZAQ-1" source="4d9BVol8pyJ4ggtCNikl-6" target="4d9BVol8pyJ4ggtCNikl-4" edge="1">
                    <mxGeometry width="100" relative="1" as="geometry">
                        <mxPoint x="420" y="140" as="sourcePoint"/>
                        <mxPoint x="402.5" y="145" as="targetPoint"/>
                    </mxGeometry>
                </mxCell>
                <mxCell id="4d9BVol8pyJ4ggtCNikl-13" value="Gruppe erstellen" style="ellipse;whiteSpace=wrap;html=1;" parent="9OP8s1nlH45upp5OgZAQ-1" vertex="1">
                    <mxGeometry x="120" y="170" width="110" height="45" as="geometry"/>
                </mxCell>
                <mxCell id="4d9BVol8pyJ4ggtCNikl-14" value="Gruppe auswählen" style="ellipse;whiteSpace=wrap;html=1;" parent="9OP8s1nlH45upp5OgZAQ-1" vertex="1">
                    <mxGeometry x="120" y="230" width="110" height="45" as="geometry"/>
                </mxCell>
                <mxCell id="4d9BVol8pyJ4ggtCNikl-15" value="" style="startArrow=oval;startFill=0;startSize=7;endArrow=block;endFill=0;endSize=10;dashed=1;html=1;entryX=1;entryY=0.5;entryDx=0;entryDy=0;exitX=0;exitY=0.5;exitDx=0;exitDy=0;" parent="9OP8s1nlH45upp5OgZAQ-1" source="4d9BVol8pyJ4ggtCNikl-2" target="4d9BVol8pyJ4ggtCNikl-3" edge="1">
                    <mxGeometry width="100" relative="1" as="geometry">
                        <mxPoint x="550" y="145" as="sourcePoint"/>
                        <mxPoint x="495" y="145" as="targetPoint"/>
                    </mxGeometry>
                </mxCell>
                <mxCell id="4d9BVol8pyJ4ggtCNikl-16" value="" style="startArrow=oval;startFill=0;startSize=7;endArrow=block;endFill=0;endSize=10;dashed=1;html=1;entryX=1;entryY=0;entryDx=0;entryDy=0;exitX=0;exitY=0.5;exitDx=0;exitDy=0;" parent="9OP8s1nlH45upp5OgZAQ-1" source="4d9BVol8pyJ4ggtCNikl-4" target="4d9BVol8pyJ4ggtCNikl-3" edge="1">
                    <mxGeometry width="100" relative="1" as="geometry">
                        <mxPoint x="395" y="145" as="sourcePoint"/>
                        <mxPoint x="360" y="145" as="targetPoint"/>
                    </mxGeometry>
                </mxCell>
                <mxCell id="4d9BVol8pyJ4ggtCNikl-17" value="" style="startArrow=oval;startFill=0;startSize=7;endArrow=block;endFill=0;endSize=10;dashed=1;html=1;entryX=1;entryY=1;entryDx=0;entryDy=0;exitX=0;exitY=0.5;exitDx=0;exitDy=0;" parent="9OP8s1nlH45upp5OgZAQ-1" source="4d9BVol8pyJ4ggtCNikl-5" target="4d9BVol8pyJ4ggtCNikl-3" edge="1">
                    <mxGeometry width="100" relative="1" as="geometry">
                        <mxPoint x="390" y="105" as="sourcePoint"/>
                        <mxPoint x="349.74873734152925" y="134.3933982822017" as="targetPoint"/>
                    </mxGeometry>
                </mxCell>
                <mxCell id="4d9BVol8pyJ4ggtCNikl-18" value="" style="startArrow=oval;startFill=0;startSize=7;endArrow=block;endFill=0;endSize=10;dashed=1;html=1;entryX=1;entryY=0.5;entryDx=0;entryDy=0;exitX=0;exitY=1;exitDx=0;exitDy=0;" parent="9OP8s1nlH45upp5OgZAQ-1" source="4d9BVol8pyJ4ggtCNikl-3" target="4d9BVol8pyJ4ggtCNikl-13" edge="1">
                    <mxGeometry width="100" relative="1" as="geometry">
                        <mxPoint x="397.5" y="190" as="sourcePoint"/>
                        <mxPoint x="349.74873734152925" y="155.6066017177983" as="targetPoint"/>
                    </mxGeometry>
                </mxCell>
                <mxCell id="4d9BVol8pyJ4ggtCNikl-19" value="" style="startArrow=oval;startFill=0;startSize=7;endArrow=block;endFill=0;endSize=10;dashed=1;html=1;entryX=1;entryY=0.5;entryDx=0;entryDy=0;exitX=0;exitY=0.5;exitDx=0;exitDy=0;" parent="9OP8s1nlH45upp5OgZAQ-1" source="4d9BVol8pyJ4ggtCNikl-3" target="4d9BVol8pyJ4ggtCNikl-8" edge="1">
                    <mxGeometry width="100" relative="1" as="geometry">
                        <mxPoint x="325" y="160" as="sourcePoint"/>
                        <mxPoint x="272.5" y="202.5" as="targetPoint"/>
                    </mxGeometry>
                </mxCell>
                <mxCell id="4d9BVol8pyJ4ggtCNikl-20" value="" style="startArrow=oval;startFill=0;startSize=7;endArrow=block;endFill=0;endSize=10;dashed=1;html=1;entryX=1;entryY=0.5;entryDx=0;entryDy=0;exitX=0;exitY=0;exitDx=0;exitDy=0;" parent="9OP8s1nlH45upp5OgZAQ-1" source="4d9BVol8pyJ4ggtCNikl-3" target="4d9BVol8pyJ4ggtCNikl-7" edge="1">
                    <mxGeometry width="100" relative="1" as="geometry">
                        <mxPoint x="290" y="145" as="sourcePoint"/>
                        <mxPoint x="277.5" y="145" as="targetPoint"/>
                    </mxGeometry>
                </mxCell>
                <mxCell id="4d9BVol8pyJ4ggtCNikl-21" value="" style="startArrow=oval;startFill=0;startSize=7;endArrow=block;endFill=0;endSize=10;dashed=1;html=1;entryX=1;entryY=0.5;entryDx=0;entryDy=0;" parent="9OP8s1nlH45upp5OgZAQ-1" target="4d9BVol8pyJ4ggtCNikl-14" edge="1">
                    <mxGeometry width="100" relative="1" as="geometry">
                        <mxPoint x="310" y="150" as="sourcePoint"/>
                        <mxPoint x="260" y="90" as="targetPoint"/>
                    </mxGeometry>
                </mxCell>
                <mxCell id="4d9BVol8pyJ4ggtCNikl-22" value="" style="endArrow=none;html=1;entryX=0;entryY=0.5;entryDx=0;entryDy=0;" parent="9OP8s1nlH45upp5OgZAQ-1" source="4d9BVol8pyJ4ggtCNikl-0" target="4d9BVol8pyJ4ggtCNikl-7" edge="1">
                    <mxGeometry width="50" height="50" relative="1" as="geometry">
                        <mxPoint x="410" y="300" as="sourcePoint"/>
                        <mxPoint x="460" y="250" as="targetPoint"/>
                    </mxGeometry>
                </mxCell>
                <mxCell id="4d9BVol8pyJ4ggtCNikl-23" value="" style="endArrow=none;html=1;entryX=0;entryY=1;entryDx=0;entryDy=0;" parent="9OP8s1nlH45upp5OgZAQ-1" target="4d9BVol8pyJ4ggtCNikl-8" edge="1">
                    <mxGeometry width="50" height="50" relative="1" as="geometry">
                        <mxPoint x="70" y="240" as="sourcePoint"/>
                        <mxPoint x="140" y="90" as="targetPoint"/>
                    </mxGeometry>
                </mxCell>
                <mxCell id="4d9BVol8pyJ4ggtCNikl-24" value="" style="endArrow=none;html=1;entryX=0;entryY=1;entryDx=0;entryDy=0;" parent="9OP8s1nlH45upp5OgZAQ-1" target="4d9BVol8pyJ4ggtCNikl-13" edge="1">
                    <mxGeometry width="50" height="50" relative="1" as="geometry">
                        <mxPoint x="80" y="250" as="sourcePoint"/>
                        <mxPoint x="142.57359312880703" y="162.67766952966372" as="targetPoint"/>
                    </mxGeometry>
                </mxCell>
                <mxCell id="4d9BVol8pyJ4ggtCNikl-25" value="" style="endArrow=none;html=1;entryX=0;entryY=0.5;entryDx=0;entryDy=0;" parent="9OP8s1nlH45upp5OgZAQ-1" source="4d9BVol8pyJ4ggtCNikl-0" target="4d9BVol8pyJ4ggtCNikl-14" edge="1">
                    <mxGeometry width="50" height="50" relative="1" as="geometry">
                        <mxPoint x="80" y="260" as="sourcePoint"/>
                        <mxPoint x="145.67463320428192" y="218.2301467182872" as="targetPoint"/>
                    </mxGeometry>
                </mxCell>
                <mxCell id="4d9BVol8pyJ4ggtCNikl-26" value="" style="endArrow=none;html=1;entryX=0;entryY=0.5;entryDx=0;entryDy=0;" parent="9OP8s1nlH45upp5OgZAQ-1" source="4d9BVol8pyJ4ggtCNikl-0" target="4d9BVol8pyJ4ggtCNikl-9" edge="1">
                    <mxGeometry width="50" height="50" relative="1" as="geometry">
                        <mxPoint x="90" y="270" as="sourcePoint"/>
                        <mxPoint x="130" y="262.5" as="targetPoint"/>
                    </mxGeometry>
                </mxCell>
                <mxCell id="4d9BVol8pyJ4ggtCNikl-27" value="Nachricht lesen" style="ellipse;whiteSpace=wrap;html=1;" parent="9OP8s1nlH45upp5OgZAQ-1" vertex="1">
                    <mxGeometry x="125" y="340" width="110" height="40" as="geometry"/>
                </mxCell>
                <mxCell id="4d9BVol8pyJ4ggtCNikl-28" value="" style="endArrow=none;html=1;exitX=0;exitY=0;exitDx=0;exitDy=0;" parent="9OP8s1nlH45upp5OgZAQ-1" source="4d9BVol8pyJ4ggtCNikl-27" target="4d9BVol8pyJ4ggtCNikl-0" edge="1">
                    <mxGeometry width="50" height="50" relative="1" as="geometry">
                        <mxPoint x="410" y="310" as="sourcePoint"/>
                        <mxPoint x="460" y="260" as="targetPoint"/>
                    </mxGeometry>
                </mxCell>
                <mxCell id="4d9BVol8pyJ4ggtCNikl-29" value="empfangen" style="text;html=1;strokeColor=none;fillColor=none;align=center;verticalAlign=middle;whiteSpace=wrap;rounded=0;" parent="9OP8s1nlH45upp5OgZAQ-1" vertex="1">
                    <mxGeometry x="90" y="300" width="100" height="20" as="geometry"/>
                </mxCell>
                <mxCell id="4d9BVol8pyJ4ggtCNikl-30" value="Standort" style="ellipse;whiteSpace=wrap;html=1;" parent="9OP8s1nlH45upp5OgZAQ-1" vertex="1">
                    <mxGeometry x="390.75" y="210" width="97.5" height="40" as="geometry"/>
                </mxCell>
                <mxCell id="4d9BVol8pyJ4ggtCNikl-31" value="&lt;span style=&quot;color: rgba(0 , 0 , 0 , 0) ; font-family: monospace ; font-size: 0px ; background-color: rgb(248 , 249 , 250)&quot;&gt;%3CmxGraphModel%3E%3Croot%3E%3CmxCell%20id%3D%220%22%2F%3E%3CmxCell%20id%3D%221%22%20parent%3D%220%22%2F%3E%3CmxCell%20id%3D%222%22%20value%3D%22%22%20style%3D%22startArrow%3Doval%3BstartFill%3D0%3BstartSize%3D7%3BendArrow%3Dblock%3BendFill%3D0%3BendSize%3D10%3Bdashed%3D1%3Bhtml%3D1%3BentryX%3D1%3BentryY%3D0.5%3BentryDx%3D0%3BentryDy%3D0%3BexitX%3D0%3BexitY%3D0.5%3BexitDx%3D0%3BexitDy%3D0%3B%22%20edge%3D%221%22%20parent%3D%221%22%3E%3CmxGeometry%20width%3D%22100%22%20relative%3D%221%22%20as%3D%22geometry%22%3E%3CmxPoint%20x%3D%22530%22%20y%3D%22135%22%20as%3D%22sourcePoint%22%2F%3E%3CmxPoint%20x%3D%22485%22%20y%3D%22180%22%20as%3D%22targetPoint%22%2F%3E%3C%2FmxGeometry%3E%3C%2FmxCell%3E%3C%2Froot%3E%3C%2FmxGraphModel%3E&lt;/span&gt;" style="startArrow=oval;startFill=0;startSize=7;endArrow=block;endFill=0;endSize=10;dashed=1;html=1;entryX=1;entryY=0.5;entryDx=0;entryDy=0;exitX=0;exitY=0.5;exitDx=0;exitDy=0;" parent="9OP8s1nlH45upp5OgZAQ-1" source="4d9BVol8pyJ4ggtCNikl-6" target="4d9BVol8pyJ4ggtCNikl-30" edge="1">
                    <mxGeometry width="100" relative="1" as="geometry">
                        <mxPoint x="540" y="145" as="sourcePoint"/>
                        <mxPoint x="495" y="190" as="targetPoint"/>
                    </mxGeometry>
                </mxCell>
                <mxCell id="4d9BVol8pyJ4ggtCNikl-32" value="&lt;span style=&quot;color: rgba(0 , 0 , 0 , 0) ; font-family: monospace ; font-size: 0px ; background-color: rgb(248 , 249 , 250)&quot;&gt;%3CmxGraphModel%3E%3Croot%3E%3CmxCell%20id%3D%220%22%2F%3E%3CmxCell%20id%3D%221%22%20parent%3D%220%22%2F%3E%3CmxCell%20id%3D%222%22%20value%3D%22%22%20style%3D%22startArrow%3Doval%3BstartFill%3D0%3BstartSize%3D7%3BendArrow%3Dblock%3BendFill%3D0%3BendSize%3D10%3Bdashed%3D1%3Bhtml%3D1%3BentryX%3D1%3BentryY%3D0.5%3BentryDx%3D0%3BentryDy%3D0%3BexitX%3D0%3BexitY%3D0.5%3BexitDx%3D0%3BexitDy%3D0%3B%22%20edge%3D%221%22%20parent%3D%221%22%3E%3CmxGeometry%20width%3D%22100%22%20relative%3D%221%22%20as%3D%22geometry%22%3E%3CmxPoint%20x%3D%22530%22%20y%3D%22135%22%20as%3D%22sourcePoint%22%2F%3E%3CmxPoint%20x%3D%22485%22%20y%3D%22180%22%20as%3D%22targetPoint%22%2F%3E%3C%2FmxGeometry%3E%3C%2FmxCell%3E%3C%2Froot%3E%3C%2FmxGraphModel%3E&lt;/span&gt;" style="startArrow=oval;startFill=0;startSize=7;endArrow=block;endFill=0;endSize=10;dashed=1;html=1;exitX=0;exitY=0.5;exitDx=0;exitDy=0;" parent="9OP8s1nlH45upp5OgZAQ-1" source="4d9BVol8pyJ4ggtCNikl-30" target="4d9BVol8pyJ4ggtCNikl-3" edge="1">
                    <mxGeometry width="100" relative="1" as="geometry">
                        <mxPoint x="540" y="145" as="sourcePoint"/>
                        <mxPoint x="498.25" y="240" as="targetPoint"/>
                    </mxGeometry>
                </mxCell>
            </root>
        </mxGraphModel>
    </diagram>
    <diagram id="EuSKCGCcNPP9SDDgldvS" name="Page-3">
        <mxGraphModel dx="1116" dy="623" grid="1" gridSize="10" guides="1" tooltips="1" connect="1" arrows="1" fold="1" page="1" pageScale="1" pageWidth="1169" pageHeight="827" math="0" shadow="0">
            <root>
                <mxCell id="U-pjnNekW-sIVJtnUgk1-0"/>
                <mxCell id="U-pjnNekW-sIVJtnUgk1-1" parent="U-pjnNekW-sIVJtnUgk1-0"/>
                <mxCell id="U-pjnNekW-sIVJtnUgk1-2" value="" style="ellipse;fillColor=#000000;strokeColor=none;" parent="U-pjnNekW-sIVJtnUgk1-1" vertex="1">
                    <mxGeometry x="425" y="30" width="30" height="30" as="geometry"/>
                </mxCell>
                <mxCell id="U-pjnNekW-sIVJtnUgk1-3" value="" style="ellipse;html=1;shape=endState;fillColor=#000000;strokeColor=#000000;direction=south;" parent="U-pjnNekW-sIVJtnUgk1-1" vertex="1">
                    <mxGeometry x="325" y="410" width="30" height="30" as="geometry"/>
                </mxCell>
                <mxCell id="U-pjnNekW-sIVJtnUgk1-4" value="" style="edgeStyle=orthogonalEdgeStyle;rounded=0;orthogonalLoop=1;jettySize=auto;html=1;exitX=0.5;exitY=1;exitDx=0;exitDy=0;" parent="U-pjnNekW-sIVJtnUgk1-1" source="U-pjnNekW-sIVJtnUgk1-5" target="U-pjnNekW-sIVJtnUgk1-11" edge="1">
                    <mxGeometry relative="1" as="geometry"/>
                </mxCell>
                <mxCell id="U-pjnNekW-sIVJtnUgk1-5" value="Shoot Picture" style="rounded=1;whiteSpace=wrap;html=1;" parent="U-pjnNekW-sIVJtnUgk1-1" vertex="1">
                    <mxGeometry x="390" y="150" width="100" height="40" as="geometry"/>
                </mxCell>
                <mxCell id="U-pjnNekW-sIVJtnUgk1-6" value="discard?" style="rhombus;whiteSpace=wrap;html=1;" parent="U-pjnNekW-sIVJtnUgk1-1" vertex="1">
                    <mxGeometry x="400" y="280" width="80" height="80" as="geometry"/>
                </mxCell>
                <mxCell id="U-pjnNekW-sIVJtnUgk1-7" value="Press Camera Button" style="rounded=1;whiteSpace=wrap;html=1;" parent="U-pjnNekW-sIVJtnUgk1-1" vertex="1">
                    <mxGeometry x="390" y="80" width="100" height="40" as="geometry"/>
                </mxCell>
                <mxCell id="U-pjnNekW-sIVJtnUgk1-8" value="Write Text / add File" style="rounded=1;whiteSpace=wrap;html=1;" parent="U-pjnNekW-sIVJtnUgk1-1" vertex="1">
                    <mxGeometry x="290" y="340" width="100" height="40" as="geometry"/>
                </mxCell>
                <mxCell id="U-pjnNekW-sIVJtnUgk1-9" value="" style="endArrow=classic;html=1;entryX=0.5;entryY=0;entryDx=0;entryDy=0;exitX=0.5;exitY=1;exitDx=0;exitDy=0;" parent="U-pjnNekW-sIVJtnUgk1-1" source="U-pjnNekW-sIVJtnUgk1-7" target="U-pjnNekW-sIVJtnUgk1-5" edge="1">
                    <mxGeometry width="50" height="50" relative="1" as="geometry">
                        <mxPoint x="330" y="230" as="sourcePoint"/>
                        <mxPoint x="380" y="180" as="targetPoint"/>
                    </mxGeometry>
                </mxCell>
                <mxCell id="U-pjnNekW-sIVJtnUgk1-10" value="&lt;font style=&quot;font-size: 10px&quot;&gt;generate Name&lt;/font&gt;" style="text;html=1;strokeColor=none;fillColor=none;align=center;verticalAlign=middle;whiteSpace=wrap;rounded=0;" parent="U-pjnNekW-sIVJtnUgk1-1" vertex="1">
                    <mxGeometry x="375" y="190" width="50" height="30" as="geometry"/>
                </mxCell>
                <mxCell id="U-pjnNekW-sIVJtnUgk1-11" value="Look at Picture" style="rounded=1;whiteSpace=wrap;html=1;" parent="U-pjnNekW-sIVJtnUgk1-1" vertex="1">
                    <mxGeometry x="390" y="220" width="100" height="40" as="geometry"/>
                </mxCell>
                <mxCell id="U-pjnNekW-sIVJtnUgk1-12" value="" style="edgeStyle=orthogonalEdgeStyle;rounded=0;orthogonalLoop=1;jettySize=auto;html=1;exitX=0.5;exitY=1;exitDx=0;exitDy=0;entryX=0.5;entryY=0;entryDx=0;entryDy=0;" parent="U-pjnNekW-sIVJtnUgk1-1" source="U-pjnNekW-sIVJtnUgk1-11" target="U-pjnNekW-sIVJtnUgk1-6" edge="1">
                    <mxGeometry relative="1" as="geometry">
                        <mxPoint x="450" y="199.9999999999999" as="sourcePoint"/>
                        <mxPoint x="450" y="230" as="targetPoint"/>
                    </mxGeometry>
                </mxCell>
                <mxCell id="U-pjnNekW-sIVJtnUgk1-13" value="" style="edgeStyle=orthogonalEdgeStyle;rounded=0;orthogonalLoop=1;jettySize=auto;html=1;exitX=0;exitY=0.5;exitDx=0;exitDy=0;entryX=0.5;entryY=0;entryDx=0;entryDy=0;" parent="U-pjnNekW-sIVJtnUgk1-1" source="U-pjnNekW-sIVJtnUgk1-6" target="U-pjnNekW-sIVJtnUgk1-8" edge="1">
                    <mxGeometry relative="1" as="geometry">
                        <mxPoint x="450" y="270" as="sourcePoint"/>
                        <mxPoint x="450" y="290" as="targetPoint"/>
                    </mxGeometry>
                </mxCell>
                <mxCell id="U-pjnNekW-sIVJtnUgk1-14" value="" style="edgeStyle=orthogonalEdgeStyle;rounded=0;orthogonalLoop=1;jettySize=auto;html=1;exitX=1;exitY=0.5;exitDx=0;exitDy=0;entryX=1;entryY=0.5;entryDx=0;entryDy=0;" parent="U-pjnNekW-sIVJtnUgk1-1" source="U-pjnNekW-sIVJtnUgk1-6" target="U-pjnNekW-sIVJtnUgk1-5" edge="1">
                    <mxGeometry relative="1" as="geometry">
                        <mxPoint x="410" y="330" as="sourcePoint"/>
                        <mxPoint x="530" y="210" as="targetPoint"/>
                        <Array as="points">
                            <mxPoint x="520" y="320"/>
                            <mxPoint x="520" y="170"/>
                        </Array>
                    </mxGeometry>
                </mxCell>
                <mxCell id="U-pjnNekW-sIVJtnUgk1-15" value="" style="edgeStyle=orthogonalEdgeStyle;rounded=0;orthogonalLoop=1;jettySize=auto;html=1;exitX=0.5;exitY=1;exitDx=0;exitDy=0;entryX=0;entryY=0.5;entryDx=0;entryDy=0;" parent="U-pjnNekW-sIVJtnUgk1-1" source="U-pjnNekW-sIVJtnUgk1-8" target="U-pjnNekW-sIVJtnUgk1-3" edge="1">
                    <mxGeometry relative="1" as="geometry">
                        <mxPoint x="450" y="199.9999999999999" as="sourcePoint"/>
                        <mxPoint x="450" y="230" as="targetPoint"/>
                    </mxGeometry>
                </mxCell>
                <mxCell id="U-pjnNekW-sIVJtnUgk1-16" value="&lt;font style=&quot;font-size: 10px&quot;&gt;No&lt;/font&gt;" style="text;html=1;strokeColor=none;fillColor=none;align=center;verticalAlign=middle;whiteSpace=wrap;rounded=0;" parent="U-pjnNekW-sIVJtnUgk1-1" vertex="1">
                    <mxGeometry x="350" y="290" width="50" height="30" as="geometry"/>
                </mxCell>
                <mxCell id="U-pjnNekW-sIVJtnUgk1-17" value="&lt;span style=&quot;font-size: 10px&quot;&gt;Yes&lt;/span&gt;" style="text;html=1;strokeColor=none;fillColor=none;align=center;verticalAlign=middle;whiteSpace=wrap;rounded=0;" parent="U-pjnNekW-sIVJtnUgk1-1" vertex="1">
                    <mxGeometry x="470" y="290" width="50" height="30" as="geometry"/>
                </mxCell>
                <mxCell id="U-pjnNekW-sIVJtnUgk1-18" value="" style="endArrow=classic;html=1;entryX=0.5;entryY=0;entryDx=0;entryDy=0;exitX=0.5;exitY=1;exitDx=0;exitDy=0;" parent="U-pjnNekW-sIVJtnUgk1-1" source="U-pjnNekW-sIVJtnUgk1-2" target="U-pjnNekW-sIVJtnUgk1-7" edge="1">
                    <mxGeometry width="50" height="50" relative="1" as="geometry">
                        <mxPoint x="450" y="130" as="sourcePoint"/>
                        <mxPoint x="450" y="160" as="targetPoint"/>
                    </mxGeometry>
                </mxCell>
            </root>
        </mxGraphModel>
    </diagram>
</mxfile>